<svg id="visual" viewBox="0 0 900 600" width="900" height="600" xmlns="http://www.w3.org/2000/svg" xmlns:xlink="http://www.w3.org/1999/xlink" version="1.1"><rect x="0" y="0" width="900" height="600" fill="#FFFFFF"></rect><defs><linearGradient id="grad1_0" x1="33.3%" y1="0%" x2="100%" y2="100%"><stop offset="20%" stop-color="#f7caca" stop-opacity="1"></stop><stop offset="80%" stop-color="#f7caca" stop-opacity="1"></stop></linearGradient></defs><defs><linearGradient id="grad1_1" x1="33.3%" y1="0%" x2="100%" y2="100%"><stop offset="20%" stop-color="#f7caca" stop-opacity="1"></stop><stop offset="80%" stop-color="#fad7d7" stop-opacity="1"></stop></linearGradient></defs><defs><linearGradient id="grad1_2" x1="33.3%" y1="0%" x2="100%" y2="100%"><stop offset="20%" stop-color="#fce4e4" stop-opacity="1"></stop><stop offset="80%" stop-color="#fad7d7" stop-opacity="1"></stop></linearGradient></defs><defs><linearGradient id="grad1_3" x1="33.3%" y1="0%" x2="100%" y2="100%"><stop offset="20%" stop-color="#fce4e4" stop-opacity="1"></stop><stop offset="80%" stop-color="#fef2f2" stop-opacity="1"></stop></linearGradient></defs><defs><linearGradient id="grad1_4" x1="33.3%" y1="0%" x2="100%" y2="100%"><stop offset="20%" stop-color="#ffffff" stop-opacity="1"></stop><stop offset="80%" stop-color="#fef2f2" stop-opacity="1"></stop></linearGradient></defs><defs><linearGradient id="grad2_0" x1="0%" y1="0%" x2="66.7%" y2="100%"><stop offset="20%" stop-color="#f7caca" stop-opacity="1"></stop><stop offset="80%" stop-color="#f7caca" stop-opacity="1"></stop></linearGradient></defs><defs><linearGradient id="grad2_1" x1="0%" y1="0%" x2="66.7%" y2="100%"><stop offset="20%" stop-color="#fad7d7" stop-opacity="1"></stop><stop offset="80%" stop-color="#f7caca" stop-opacity="1"></stop></linearGradient></defs><defs><linearGradient id="grad2_2" x1="0%" y1="0%" x2="66.7%" y2="100%"><stop offset="20%" stop-color="#fad7d7" stop-opacity="1"></stop><stop offset="80%" stop-color="#fce4e4" stop-opacity="1"></stop></linearGradient></defs><defs><linearGradient id="grad2_3" x1="0%" y1="0%" x2="66.7%" y2="100%"><stop offset="20%" stop-color="#fef2f2" stop-opacity="1"></stop><stop offset="80%" stop-color="#fce4e4" stop-opacity="1"></stop></linearGradient></defs><defs><linearGradient id="grad2_4" x1="0%" y1="0%" x2="66.7%" y2="100%"><stop offset="20%" stop-color="#fef2f2" stop-opacity="1"></stop><stop offset="80%" stop-color="#ffffff" stop-opacity="1"></stop></linearGradient></defs><g transform="translate(900, 0)"><path d="M0 459.7C-43.2 409.8 -86.5 359.9 -141.6 341.8C-196.7 323.8 -263.7 337.7 -315.4 315.4C-367 293 -403.2 234.5 -424.7 175.9C-446.2 117.3 -453 58.7 -459.7 0L0 0Z" fill="#fef8f8"></path><path d="M0 367.8C-34.6 327.8 -69.2 287.9 -113.3 273.5C-157.4 259.1 -211 270.2 -252.3 252.3C-293.6 234.4 -322.6 187.6 -339.8 140.7C-357 93.9 -362.4 46.9 -367.8 0L0 0Z" fill="#fdebeb"></path><path d="M0 275.8C-25.9 245.9 -51.9 215.9 -85 205.1C-118 194.3 -158.2 202.6 -189.2 189.2C-220.2 175.8 -241.9 140.7 -254.8 105.6C-267.7 70.4 -271.8 35.2 -275.8 0L0 0Z" fill="#fbdede"></path><path d="M0 183.9C-17.3 163.9 -34.6 143.9 -56.6 136.7C-78.7 129.5 -105.5 135.1 -126.1 126.1C-146.8 117.2 -161.3 93.8 -169.9 70.4C-178.5 46.9 -181.2 23.5 -183.9 0L0 0Z" fill="#f8d1d0"></path><path d="M0 91.9C-8.6 82 -17.3 72 -28.3 68.4C-39.3 64.8 -52.7 67.5 -63.1 63.1C-73.4 58.6 -80.6 46.9 -84.9 35.2C-89.2 23.5 -90.6 11.7 -91.9 0L0 0Z" fill="#f7caca"></path></g><g transform="translate(0, 600)"><path d="M0 -459.7C68.5 -462.6 136.9 -465.4 175.9 -424.7C214.9 -384 224.5 -299.7 248.9 -248.9C273.3 -198.1 312.5 -180.9 350.2 -145C387.8 -109.1 423.7 -54.6 459.7 0L0 0Z" fill="#fef8f8"></path><path d="M0 -367.8C54.8 -370.1 109.5 -372.4 140.7 -339.8C171.9 -307.2 179.6 -239.7 199.1 -199.1C218.6 -158.5 250 -144.7 280.1 -116C310.2 -87.3 339 -43.7 367.8 0L0 0Z" fill="#fdebeb"></path><path d="M0 -275.8C41.1 -277.5 82.1 -279.3 105.6 -254.8C129 -230.4 134.7 -179.8 149.3 -149.3C164 -118.9 187.5 -108.6 210.1 -87C232.7 -65.5 254.2 -32.7 275.8 0L0 0Z" fill="#fbdede"></path><path d="M0 -183.9C27.4 -185 54.8 -186.2 70.4 -169.9C86 -153.6 89.8 -119.9 99.6 -99.6C109.3 -79.3 125 -72.4 140.1 -58C155.1 -43.7 169.5 -21.8 183.9 0L0 0Z" fill="#f8d1d0"></path><path d="M0 -91.9C13.7 -92.5 27.4 -93.1 35.2 -84.9C43 -76.8 44.9 -59.9 49.8 -49.8C54.7 -39.6 62.5 -36.2 70 -29C77.6 -21.8 84.7 -10.9 91.9 0L0 0Z" fill="#f7caca"></path></g></svg>