<svg id="visual" viewBox="0 0 900 600" width="900" height="600" xmlns="http://www.w3.org/2000/svg" xmlns:xlink="http://www.w3.org/1999/xlink" version="1.1"><rect x="0" y="0" width="900" height="600" fill="#002233"></rect><path d="M0 467L21.5 456.7C43 446.3 86 425.7 128.8 424C171.7 422.3 214.3 439.7 257.2 459.3C300 479 343 501 385.8 502.8C428.7 504.7 471.3 486.3 514.2 480.5C557 474.7 600 481.3 642.8 475.8C685.7 470.3 728.3 452.7 771.2 439.5C814 426.3 857 417.7 878.5 413.3L900 409L900 601L878.5 601C857 601 814 601 771.2 601C728.3 601 685.7 601 642.8 601C600 601 557 601 514.2 601C471.3 601 428.7 601 385.8 601C343 601 300 601 257.2 601C214.3 601 171.7 601 128.8 601C86 601 43 601 21.5 601L0 601Z" fill="#0066FF" stroke-linecap="round" stroke-linejoin="miter"></path></svg>